<svg xmlns="http://www.w3.org/2000/svg" width="220px" height="330px" viewBox="0 0 220 330" enable-background="new 0 0 220 330"><defs><linearGradient id="0" gradientUnits="userSpaceOnUse" y1="168.72" x2="0" y2="178.66"><stop stop-color="#e82208" stop-opacity=".9"/><stop offset="1" stop-color="#cc1108" stop-opacity=".9"/></linearGradient><linearGradient id="1" gradientUnits="userSpaceOnUse" y1="167.94" x2="0" y2="178.51"><stop stop-color="#e82208" stop-opacity=".8"/><stop offset="1" stop-color="#cc1108"/></linearGradient></defs><path fill="#ffb502" d="M14,0c7.732,0,14,6.269,14,14s-6.268,14-14,14S0,21.732,0,14C0,6.269,6.269,0,14,0"/><path fill="#fff" d="m7.967 9.483l5.01 13.04 2.01-.027 5.05-13.03 1.949.016v-2h-4.02l-3.974 9.02-4.02-8.986-3.966.007v1.97l1.959-.005"/><path fill="#00a4ff" d="m14 40c7.732 0 14 6.269 14 14s-6.268 14-14 14c-7.733 0-14-6.268-14-14 0-7.731 6.268-14 14-14"/><path fill="#fff" d="m7.967 49.48l5.01 13.04 2.01-.027 5.05-13.03 1.949.016v-2h-4.02l-3.974 9.02-4.02-8.986-3.966.007v1.97l1.959-.005"/><path fill="#ed3714" d="m14 80c7.731 0 14 6.269 14 14s-6.269 14-14 14c-7.732 0-14-6.268-14-14 0-7.731 6.269-14 14-14"/><path fill="#fff" d="m23.07 90.57l-5.966-.046-3.171-6.854-3.107 6.869-5.904.027 4.429 4.945-1.413 6.822 15.13-11.763m-10.933 1.933l1.811-3.65 1.662 3.65 1.313-.04-5.886 4.793.453-1.971-2.01-2.783h2.661m2.355 6.809l6.303 2.897-1.603-6.873-4.7 3.976"/><path fill="#fd5093" d="m14 120c7.731 0 14 6.269 14 14s-6.269 14-14 14c-7.732 0-14-6.269-14-14s6.269-14 14-14"/><path fill="#fff" d="m6 126c3.367 1.049 6.195 6.545 6.926 9.664.189.806-.238 2.402 1.043 2.273 1.345.144.806-1.428 1.073-2.313 2.514-8.352 6.958-9.624 6.958-9.624s-.225 7.522-3.581 12.194c-.933 1.298 1.112 2.531 1.581 3.806-.677 0-2.031-.031-2.031-.031l.021-.958c0 0-1.702.003-3.959.021-2.25.018-4.03-.002-4.03-.002l.033.97c0 0-1.354 0-2.031 0 .502-1.593 2.415-2.708 1.661-3.817-3.269-4.804-3.137-6.356-3.661-12.183"/><path fill="#fdb713" d="m18.633 163.73c-.611.612-1.425 1.222-2.24 1.767 1.625-2.197 1.624-5.475-3.274-5.493-4.968.018-4.961 3.327-3.296 5.523-.831-.551-1.664-1.173-2.288-1.797-5.549 0-7.398 5.549-7.398 7.399 0 5.549 3.699 9.249 3.699 9.249v1.851l1.85 3.698h14.798l1.85-3.698v-1.851c0 0 3.699-3.7 3.699-9.249-.002-1.85-1.851-7.399-7.4-7.399"/><path fill="#fde253" d="m5.685 184.06h14.798v-1.852h-14.798v1.852m7.415-17.685c1.75 0 4.904-4.53 0-4.53-4.97 0-1.748 4.53 0 4.53m5.533-.813c-1.85 2.773-5.533 2.811-5.533 2.811s-3.716-.032-5.565-2.811c-4.382 1.289-5.549 3.698-5.549 6.479 0 4.624 3.699 6.477 3.699 6.477v1.853h14.798v-1.853c0 0 3.699-1.853 3.699-6.477 0-2.781-1.168-5.19-5.549-6.479"/><path fill="url(#0)" d="m3.85 172.01c.058 3.121 4.624 6.504 4.624 6.504h2.774c0 0 0-7.688 0-9.25-1.85 0-3.757-1.328-3.757-1.328s-3.699.953-3.641 4.074m14.797-4.074c0 0-.925 1.328-3.699 1.328 0 1.563 0 9.25 0 9.25h2.774c0 0 4.537-3.354 4.595-6.475.059-3.122-3.67-4.103-3.67-4.103"/><path fill="url(#1)" stroke="#c62b1a" stroke-width=".75" stroke-miterlimit="10" d="m3.85 172.01c.058 3.121 4.624 6.504 4.624 6.504h2.774c0 0 0-7.688 0-9.25-1.85 0-3.757-1.328-3.757-1.328s-3.699.953-3.641 4.074zm14.797-4.074c0 0-.925 1.328-3.699 1.328 0 1.563 0 9.25 0 9.25h2.774c0 0 4.537-3.354 4.595-6.475.059-3.122-3.67-4.103-3.67-4.103z"/><path fill="#bebebe" d="m18.497 203.73c-.611.61-1.425 1.226-2.24 1.771 1.625-2.197 1.624-5.479-3.274-5.493-4.968.021-4.961 3.327-3.296 5.521-.831-.551-1.664-1.174-2.288-1.797-5.549 0-7.398 5.549-7.398 7.396 0 5.549 3.699 9.249 3.699 9.249v1.853l1.85 3.696h14.798l1.85-3.696v-1.853c0 0 3.699-3.7 3.699-9.249 0-1.851-1.851-7.398-7.4-7.398"/><path fill="#fefefe" d="m5.549 224.06h14.798v-1.852h-14.798v1.852m7.415-17.685c1.75 0 4.904-4.528 0-4.528-4.97 0-1.748 4.528 0 4.528m5.533-.813c-1.85 2.773-5.533 2.811-5.533 2.811s-3.716-.032-5.565-2.811c-4.382 1.289-5.549 3.698-5.549 6.479 0 4.624 3.699 6.477 3.699 6.477v1.853h14.798v-1.853c0 0 3.699-1.853 3.699-6.477 0-2.781-1.168-5.19-5.549-6.479"/><path fill="#bebebe" d="m3.714 212.01c.058 3.121 4.624 6.504 4.624 6.504h2.774c0 0 0-7.688 0-9.25-1.85 0-3.757-1.328-3.757-1.328s-3.699.953-3.641 4.074m14.798-4.074c0 0-.925 1.328-3.699 1.328 0 1.563 0 9.25 0 9.25h2.774c0 0 4.537-3.354 4.595-6.475.058-3.122-3.67-4.103-3.67-4.103"/><path fill="none" stroke="#bebebe" stroke-width=".75" stroke-miterlimit="10" d="m3.714 212.01c.058 3.121 4.624 6.504 4.624 6.504h2.774c0 0 0-7.688 0-9.25-1.85 0-3.757-1.328-3.757-1.328s-3.699.953-3.641 4.074zm14.798-4.074c0 0-.925 1.328-3.699 1.328 0 1.563 0 9.25 0 9.25h2.774c0 0 4.537-3.354 4.595-6.475.058-3.122-3.67-4.103-3.67-4.103z"/><path fill="#31a0ff" d="M65.999,0c8.836,0,15.999,7.163,15.999,16c0,8.836-7.163,15.999-15.999,15.999S50,24.835,50,16
	C50,7.163,57.163,0,65.999,0z"/><path fill="#fff" d="m73.56 7.505h-4.686c-.518 0-.938.42-.938.938s.42.937.938.937h2.443l-2.623 2.624c-1.174-.9-2.637-1.44-4.23-1.44-3.847 0-6.965 3.118-6.965 6.965 0 3.848 3.119 6.966 6.965 6.966 3.847 0 6.966-3.118 6.966-6.966 0-1.577-.531-3.03-1.414-4.195l2.608-2.608v2.403c0 .518.42.938.938.938s.937-.419.937-.938v-4.687c-.002-.517-.422-.937-.939-.937m-9.122 14.854c-2.673 0-4.84-2.167-4.84-4.84s2.167-4.84 4.84-4.84 4.84 2.167 4.84 4.84-2.167 4.84-4.84 4.84"/><path fill="#fd3e88" d="M65.999,40c8.836,0,15.999,7.163,15.999,16c0,8.836-7.163,15.999-15.999,15.999S50,64.835,50,56
	C50,47.163,57.163,40,65.999,40z"/><path fill="#fff" d="m67.62 47.43c-3.848 0-6.968 3.119-6.968 6.967 0 1.54.506 2.959 1.352 4.113l-.988.988-1.828-1.828c0 0-.731-.732-1.462 0-.731.73 0 1.462 0 1.462l1.828 1.828-1.828 1.828 1.462 1.462 1.828-1.828 1.828 1.828c0 0 .731.731 1.462 0s0-1.462 0-1.462l-1.828-1.828.982-.982c1.162.868 2.598 1.388 4.16 1.388 3.848 0 6.968-3.12 6.968-6.968s-3.119-6.968-6.968-6.968m-.073 11.817c-2.663 0-4.822-2.159-4.822-4.822 0-2.663 2.159-4.821 4.822-4.821s4.821 2.158 4.821 4.821c0 2.663-2.158 4.822-4.821 4.822"/><g opacity=".7"><path fill="#fff" d="m184.83 0c-13.715 0-24.834 11.12-24.834 24.834s11.12 24.833 24.834 24.833 24.834-11.12 24.834-24.833c0-13.715-11.12-24.834-24.834-24.834m12.06 26.22l-18.736 10.382c-.252.137-.482.234-.766.234-.75 0-1.355-.598-1.355-1.342h-.004v-21.317h.004c0-.74.605-1.342 1.355-1.342.272 0 .514.083.743.22l18.759 10.05c.45.371.739.932.739 1.557s-.289 1.185-.739 1.558"/></g><path opacity=".7" fill="#9a9a9a" d="m196.89 23.21l-18.759-10.162c-.229-.136-.469-.219-.743-.219-.748 0-1.355.603-1.355 1.341h-.004v21.315h.004c0 .742.607 1.342 1.355 1.342.284 0 .516-.099.768-.235l18.734-10.267c.452-.372.74-.933.74-1.558s-.288-1.186-.74-1.557"/><path fill="#929292" d="m147.09 19.19c-1.049-1.69-2.794-2.663-4.637-2.817l-12.38-.021c.998-2.415 1.565-5.05 1.565-7.827-.019-.819-.067-1.619-.149-2.396 0 0-.407-6.132-5.692-6.132-3.075 0-5.568 2.507-5.568 5.598 0 .434-.013.66-.013.63 0 6.2-4.758 11.221-10.81 11.788h-7.584c-.005 0-.009.004-.014.004h-.101c.016 0 .037.005.055.009-.455.012-.854.202-1.145.505-.307.297-.496.706-.496 1.156v24.783c0 .47.214.886.546 1.186.267.294.632.471 1.044.487h-.004.007c.018 0 .03.009.042.009h37.17c-.521 0 1.383-.143 2.557-.888 1.556-.988 2.452-2.599 2.641-4.298.001-.026.025.063.031.038l3.835-18.442c.036-1.147-.253-2.321-.903-3.372m-38.675 23.656h-4.955v-21.524h4.955v21.524m32.761-2.864c.042-.156.029-.136-.057.272l.057-.272c-.105.395-.565 2.064-1.194 2.459-.758.479-1.231.4-1.231.4h-27.04v-22.08c5.182-1.53 9.46-5.77 11.06-10.479.006 0 .006 0 .001.003.197-.559.349-1.102.381-1.543.169-1.893.295-3.473.295-3.473s.147-2.145 2.259-2.145c1.198 0 2.212.853 2.406 2.145.084.143.18.849.167 3.141-.134 2.46-.528 4.269-.752 4.951-.32 1.22-.753 2.132-1.321 3.23 0 0-.422.549-.422 1.417 0 .917.716 1.657 1.596 1.657l15.07.088c.785-.005 1.559.344 2.01 1.064.272.441.34.938.304 1.417l-3.598 17.746"/><g enable-background="new    "><path fill="#e04023" d="m147.32 99.2c-1.05-1.694-2.8-2.667-4.646-2.824l-12.407-.021c.998-2.419 1.566-5.063 1.566-7.845-.016-.822-.066-1.622-.146-2.402 0 0-.408-6.146-5.707-6.146-3.082 0-5.581 2.512-5.581 5.611 0 .434-.012.661-.012.632 0 6.212-4.768 11.245-10.833 11.814h-7.603c-.005 0-.008.005-.012.005h-.101c.017 0 .037.004.055.008-.456.012-.855.202-1.147.505-.307.3-.497.708-.497 1.159v24.838c0 .472.215.89.548 1.189.266.294.632.472 1.046.489h-.004.008c.017 0 .029.008.042.008h37.26c-.523 0 1.387-.144 2.563-.889 1.559-.99 2.457-2.605 2.646-4.308.001-.025.026.063.029.038l3.844-18.482c.038-1.149-.253-2.325-.906-3.379m-38.76 23.709h-4.966v-21.572h4.966v21.572m32.834-2.87c.043-.156.028-.135-.055.274l.055-.274c-.106.396-.565 2.069-1.197 2.465-.759.481-1.235.4-1.235.4h-27.09v-22.13c5.192-1.535 9.479-5.783 11.08-10.503.004 0 .004 0 .009.003.196-.56.35-1.104.383-1.547.169-1.897.296-3.481.296-3.481s.146-2.15 2.264-2.15c1.2 0 2.216.856 2.41 2.15.084.143.182.852.168 3.148-.135 2.466-.53 4.278-.754 4.96-.319 1.222-.756 2.137-1.324 3.237 0 0-.422.552-.422 1.42 0 .919.719 1.661 1.599 1.661l15.1.088c.789-.004 1.563.346 2.01 1.066.272.442.34.94.303 1.421l-3.606 17.789"/></g><g enable-background="new    "><path fill="#ffd7a5" d="m103.53 122.91h4.966v-21.572h-4.966v21.572m37.744-2.596c.088-.409.098-.435.055-.274l-.055.274m3.356-19.482c-.447-.721-1.222-1.071-2.01-1.066l-15.1-.088c-.88 0-1.599-.742-1.599-1.661 0-.868.422-1.42.422-1.42.568-1.1 1-2.02 1.324-3.237.224-.682.619-2.495.754-4.96.014-2.297-.084-3-.168-3.152-.198-1.294-1.215-2.15-2.41-2.15-2.118 0-2.264 2.15-2.264 2.15s-.127 1.588-.296 3.48c-.038.443-.189.992-.388 1.552-.004 0-.004 0-.008-.003-1.603 4.72-5.893 8.968-11.08 10.506v22.13h27.09c0 0 .477.08 1.235-.4.627-.4 1.091-2.069 1.197-2.466l3.604-17.787c.039-.49-.029-.983-.301-1.426"/><path fill="#f48700" d="m103.53 101.34h4.966v21.572h-4.966z"/></g></svg>